<mxfile host="Electron" modified="2024-04-23T07:37:24.837Z" agent="Mozilla/5.0 (Windows NT 10.0; Win64; x64) AppleWebKit/537.36 (KHTML, like Gecko) draw.io/24.2.5 Chrome/120.0.6099.109 Electron/28.1.0 Safari/537.36" etag="wF07cFXIBPVKrQIzX3Ar" version="24.2.5" type="device">
  <diagram name="Page-1" id="BfcYwpHdAUteODETZYKs">
    <mxGraphModel dx="1098" dy="988" grid="1" gridSize="10" guides="1" tooltips="1" connect="1" arrows="1" fold="1" page="1" pageScale="1" pageWidth="850" pageHeight="1100" math="0" shadow="0">
      <root>
        <mxCell id="0" />
        <mxCell id="1" parent="0" />
        <mxCell id="XAtdTdfQDD7QZTjps_tC-5" style="edgeStyle=orthogonalEdgeStyle;rounded=0;orthogonalLoop=1;jettySize=auto;html=1;entryX=0.5;entryY=0;entryDx=0;entryDy=0;" parent="1" source="XAtdTdfQDD7QZTjps_tC-1" target="XAtdTdfQDD7QZTjps_tC-2" edge="1">
          <mxGeometry relative="1" as="geometry" />
        </mxCell>
        <mxCell id="XAtdTdfQDD7QZTjps_tC-1" value="Request" style="rounded=0;whiteSpace=wrap;html=1;fillColor=#76608a;fontColor=#ffffff;strokeColor=#432D57;" parent="1" vertex="1">
          <mxGeometry x="400" y="300" width="230" height="40" as="geometry" />
        </mxCell>
        <mxCell id="XAtdTdfQDD7QZTjps_tC-6" style="edgeStyle=orthogonalEdgeStyle;rounded=0;orthogonalLoop=1;jettySize=auto;html=1;entryX=0.5;entryY=0;entryDx=0;entryDy=0;" parent="1" source="XAtdTdfQDD7QZTjps_tC-2" target="XAtdTdfQDD7QZTjps_tC-3" edge="1">
          <mxGeometry relative="1" as="geometry" />
        </mxCell>
        <mxCell id="XAtdTdfQDD7QZTjps_tC-2" value="Middleware" style="rounded=0;whiteSpace=wrap;html=1;fillColor=#cdeb8b;strokeColor=#36393d;" parent="1" vertex="1">
          <mxGeometry x="400" y="380" width="230" height="40" as="geometry" />
        </mxCell>
        <mxCell id="XAtdTdfQDD7QZTjps_tC-7" style="edgeStyle=orthogonalEdgeStyle;rounded=0;orthogonalLoop=1;jettySize=auto;html=1;entryX=0.5;entryY=0;entryDx=0;entryDy=0;" parent="1" source="XAtdTdfQDD7QZTjps_tC-3" target="XAtdTdfQDD7QZTjps_tC-4" edge="1">
          <mxGeometry relative="1" as="geometry" />
        </mxCell>
        <mxCell id="XAtdTdfQDD7QZTjps_tC-3" value="Middleware" style="rounded=0;whiteSpace=wrap;html=1;fillColor=#cdeb8b;strokeColor=#36393d;" parent="1" vertex="1">
          <mxGeometry x="400" y="460" width="230" height="40" as="geometry" />
        </mxCell>
        <mxCell id="XAtdTdfQDD7QZTjps_tC-4" value="Response" style="rounded=0;whiteSpace=wrap;html=1;fillColor=#76608a;fontColor=#ffffff;strokeColor=#432D57;" parent="1" vertex="1">
          <mxGeometry x="400" y="540" width="230" height="40" as="geometry" />
        </mxCell>
        <mxCell id="XAtdTdfQDD7QZTjps_tC-8" value="next()" style="text;html=1;align=center;verticalAlign=middle;resizable=0;points=[];autosize=1;strokeColor=none;fillColor=none;fontStyle=1;labelBackgroundColor=default;" parent="1" vertex="1">
          <mxGeometry x="520" y="424" width="50" height="30" as="geometry" />
        </mxCell>
        <mxCell id="XAtdTdfQDD7QZTjps_tC-9" value="res.send()" style="text;html=1;align=center;verticalAlign=middle;resizable=0;points=[];autosize=1;strokeColor=none;fillColor=none;fontStyle=1;labelBackgroundColor=default;" parent="1" vertex="1">
          <mxGeometry x="520" y="506" width="80" height="30" as="geometry" />
        </mxCell>
        <mxCell id="XAtdTdfQDD7QZTjps_tC-10" value="(req, res, next) =&amp;gt; { ... }" style="rounded=0;whiteSpace=wrap;html=1;fillColor=#ffcc99;strokeColor=#36393d;" parent="1" vertex="1">
          <mxGeometry x="640" y="380" width="230" height="40" as="geometry" />
        </mxCell>
        <mxCell id="XAtdTdfQDD7QZTjps_tC-12" value="(req, res, next) =&amp;gt; { ... }" style="rounded=0;whiteSpace=wrap;html=1;fillColor=#ffcc99;strokeColor=#36393d;" parent="1" vertex="1">
          <mxGeometry x="640" y="460" width="230" height="40" as="geometry" />
        </mxCell>
      </root>
    </mxGraphModel>
  </diagram>
</mxfile>
